<?xml version="1.0" encoding="UTF-8"?>
<svg xmlns="http://www.w3.org/2000/svg" xmlns:xlink="http://www.w3.org/1999/xlink"
     viewBox="0 0 1600 1000" width="1600" height="1000"
     font-family="Helvetica, Arial, sans-serif">

  <defs>
    <!-- Arrow marker for callout lines -->
    <marker id="arrowBlue" markerWidth="8" markerHeight="8" refX="6" refY="3" orient="auto">
      <path d="M0,0 L0,6 L8,3 z" fill="#1a6fa8"/>
    </marker>
    <marker id="arrowOrange" markerWidth="8" markerHeight="8" refX="6" refY="3" orient="auto">
      <path d="M0,0 L0,6 L8,3 z" fill="#c0392b"/>
    </marker>
    <marker id="arrowGray" markerWidth="8" markerHeight="8" refX="6" refY="3" orient="auto">
      <path d="M0,0 L0,6 L8,3 z" fill="#555"/>
    </marker>

    <!-- Drop shadow filter -->
    <filter id="shadow" x="-10%" y="-10%" width="130%" height="130%">
      <feDropShadow dx="2" dy="2" stdDeviation="3" flood-color="#00000030"/>
    </filter>

    <!-- Young panel gradient background -->
    <linearGradient id="youngBg" x1="0%" y1="0%" x2="100%" y2="100%">
      <stop offset="0%" style="stop-color:#e8f4fc;stop-opacity:1"/>
      <stop offset="100%" style="stop-color:#cce7f5;stop-opacity:1"/>
    </linearGradient>

    <!-- Aged panel gradient background -->
    <linearGradient id="agedBg" x1="0%" y1="0%" x2="100%" y2="100%">
      <stop offset="0%" style="stop-color:#fdf3e7;stop-opacity:1"/>
      <stop offset="100%" style="stop-color:#f9dfc8;stop-opacity:1"/>
    </linearGradient>

    <!-- Healthy mitochondria gradient -->
    <linearGradient id="mitoHealthy" x1="0%" y1="0%" x2="100%" y2="0%">
      <stop offset="0%" style="stop-color:#2ecc71;stop-opacity:1"/>
      <stop offset="100%" style="stop-color:#27ae60;stop-opacity:1"/>
    </linearGradient>

    <!-- Damaged mitochondria gradient -->
    <linearGradient id="mitoDamaged" x1="0%" y1="0%" x2="100%" y2="0%">
      <stop offset="0%" style="stop-color:#e67e22;stop-opacity:1"/>
      <stop offset="100%" style="stop-color:#d35400;stop-opacity:1"/>
    </linearGradient>

    <!-- Nucleus gradient young -->
    <radialGradient id="nucleusYoung" cx="50%" cy="40%" r="50%">
      <stop offset="0%" style="stop-color:#5b9bd5;stop-opacity:1"/>
      <stop offset="100%" style="stop-color:#1a6fa8;stop-opacity:1"/>
    </radialGradient>

    <!-- Nucleus gradient aged -->
    <radialGradient id="nucleusAged" cx="50%" cy="40%" r="50%">
      <stop offset="0%" style="stop-color:#c0392b;stop-opacity:0.85"/>
      <stop offset="100%" style="stop-color:#922b21;stop-opacity:1"/>
    </radialGradient>

    <!-- Cell membrane gradient young -->
    <linearGradient id="cellYoung" x1="0%" y1="0%" x2="0%" y2="100%">
      <stop offset="0%" style="stop-color:#aed6f1;stop-opacity:1"/>
      <stop offset="100%" style="stop-color:#7fb3d3;stop-opacity:1"/>
    </linearGradient>

    <!-- Cell membrane gradient aged -->
    <linearGradient id="cellAged" x1="0%" y1="0%" x2="0%" y2="100%">
      <stop offset="0%" style="stop-color:#f0b27a;stop-opacity:1"/>
      <stop offset="100%" style="stop-color:#e59866;stop-opacity:1"/>
    </linearGradient>
  </defs>

  <!-- ============================================================ -->
  <!-- OVERALL WHITE BACKGROUND -->
  <!-- ============================================================ -->
  <rect width="1600" height="1000" fill="white"/>

  <!-- ============================================================ -->
  <!-- TITLE BAR -->
  <!-- ============================================================ -->
  <rect x="0" y="0" width="1600" height="72" fill="#1a3a5c"/>
  <text x="800" y="46" text-anchor="middle" font-size="30" font-weight="bold"
        fill="white" letter-spacing="2">Cardiomyocyte Ageing</text>
  <text x="800" y="66" text-anchor="middle" font-size="13" fill="#adc8e0"
        letter-spacing="1">Structural and molecular changes in the ageing heart muscle cell</text>

  <!-- ============================================================ -->
  <!-- LEFT PANEL — YOUNG CARDIOMYOCYTE -->
  <!-- ============================================================ -->
  <rect x="20" y="82" width="740" height="760" rx="12" ry="12"
        fill="url(#youngBg)" stroke="#5b9bd5" stroke-width="2" filter="url(#shadow)"/>

  <!-- Panel title -->
  <rect x="20" y="82" width="740" height="42" rx="12" ry="12" fill="#1a6fa8"/>
  <rect x="20" y="106" width="740" height="18" fill="#1a6fa8"/>
  <text x="390" y="109" text-anchor="middle" font-size="18" font-weight="bold"
        fill="white">Young Cardiomyocyte</text>

  <!-- === YOUNG CELL BODY === -->
  <!-- Main cell outline -->
  <ellipse cx="390" cy="490" rx="290" ry="195" fill="url(#cellYoung)"
           stroke="#1a6fa8" stroke-width="2.5" opacity="0.85"/>

  <!-- === SARCOMERES (organized regular striations) === -->
  <!-- Sarcomere group — evenly spaced vertical lines across cell body -->
  <g id="sarcomeres-young" stroke="#1a3a5c" stroke-width="1.8" opacity="0.75">
    <!-- Z-lines (dark) -->
    <line x1="160" y1="430" x2="160" y2="555"/>
    <line x1="195" y1="418" x2="195" y2="564"/>
    <line x1="230" y1="410" x2="230" y2="572"/>
    <line x1="265" y1="405" x2="265" y2="577"/>
    <line x1="300" y1="403" x2="300" y2="579"/>
    <line x1="335" y1="401" x2="335" y2="580"/>
    <line x1="370" y1="400" x2="370" y2="580"/>
    <line x1="405" y1="400" x2="405" y2="580"/>
    <line x1="440" y1="401" x2="440" y2="579"/>
    <line x1="475" y1="403" x2="475" y2="577"/>
    <line x1="510" y1="406" x2="510" y2="574"/>
    <line x1="545" y1="412" x2="545" y2="568"/>
    <line x1="580" y1="422" x2="580" y2="558"/>
    <line x1="615" y1="437" x2="615" y2="543"/>
  </g>
  <!-- Myosin (thick filaments) — horizontal, between Z-lines -->
  <g stroke="#3a5f80" stroke-width="2.5" opacity="0.6">
    <line x1="165" y1="480" x2="192" y2="480"/>
    <line x1="200" y1="480" x2="227" y2="480"/>
    <line x1="235" y1="480" x2="262" y2="480"/>
    <line x1="270" y1="480" x2="297" y2="480"/>
    <line x1="305" y1="480" x2="332" y2="480"/>
    <line x1="340" y1="480" x2="367" y2="480"/>
    <line x1="375" y1="480" x2="402" y2="480"/>
    <line x1="410" y1="480" x2="437" y2="480"/>
    <line x1="445" y1="480" x2="472" y2="480"/>
    <line x1="480" y1="480" x2="507" y2="480"/>
    <line x1="515" y1="480" x2="542" y2="480"/>
    <line x1="550" y1="480" x2="577" y2="480"/>
    <line x1="585" y1="480" x2="610" y2="480"/>
  </g>

  <!-- === NUCLEUS (young) === -->
  <ellipse cx="390" cy="490" rx="58" ry="42" fill="url(#nucleusYoung)"
           stroke="#1a4f7a" stroke-width="2"/>
  <!-- Chromatin dots -->
  <circle cx="375" cy="485" r="5" fill="#0d3354" opacity="0.7"/>
  <circle cx="395" cy="495" r="4" fill="#0d3354" opacity="0.7"/>
  <circle cx="410" cy="483" r="4" fill="#0d3354" opacity="0.6"/>

  <!-- === HEALTHY MITOCHONDRIA === -->
  <!-- Elongated, with intact cristae lines -->
  <!-- Mito 1 -->
  <ellipse cx="245" cy="440" rx="38" ry="16" fill="url(#mitoHealthy)"
           stroke="#1e8449" stroke-width="1.5"/>
  <line x1="225" y1="432" x2="225" y2="448" stroke="#1e8449" stroke-width="1.2"/>
  <line x1="238" y1="428" x2="238" y2="452" stroke="#1e8449" stroke-width="1.2"/>
  <line x1="251" y1="426" x2="251" y2="454" stroke="#1e8449" stroke-width="1.2"/>
  <line x1="264" y1="428" x2="264" y2="452" stroke="#1e8449" stroke-width="1.2"/>
  <!-- Mito 2 -->
  <ellipse cx="245" cy="540" rx="36" ry="14" fill="url(#mitoHealthy)"
           stroke="#1e8449" stroke-width="1.5"/>
  <line x1="227" y1="534" x2="227" y2="546" stroke="#1e8449" stroke-width="1.2"/>
  <line x1="240" y1="530" x2="240" y2="550" stroke="#1e8449" stroke-width="1.2"/>
  <line x1="253" y1="530" x2="253" y2="550" stroke="#1e8449" stroke-width="1.2"/>
  <!-- Mito 3 -->
  <ellipse cx="540" cy="438" rx="34" ry="14" fill="url(#mitoHealthy)"
           stroke="#1e8449" stroke-width="1.5"/>
  <line x1="522" y1="432" x2="522" y2="444" stroke="#1e8449" stroke-width="1.2"/>
  <line x1="534" y1="428" x2="534" y2="448" stroke="#1e8449" stroke-width="1.2"/>
  <line x1="547" y1="428" x2="547" y2="448" stroke="#1e8449" stroke-width="1.2"/>
  <!-- Mito 4 -->
  <ellipse cx="540" cy="542" rx="34" ry="14" fill="url(#mitoHealthy)"
           stroke="#1e8449" stroke-width="1.5"/>
  <line x1="522" y1="536" x2="522" y2="548" stroke="#1e8449" stroke-width="1.2"/>
  <line x1="534" y1="532" x2="534" y2="552" stroke="#1e8449" stroke-width="1.2"/>
  <line x1="547" y1="532" x2="547" y2="552" stroke="#1e8449" stroke-width="1.2"/>

  <!-- Mitochondria label -->
  <text x="210" y="418" font-size="10" fill="#1e8449" font-weight="bold">Elongated</text>
  <text x="210" y="430" font-size="10" fill="#1e8449" font-weight="bold">mitochondria</text>

  <!-- === CALCIUM IONS (normal — small, orderly) === -->
  <g fill="#e74c3c" opacity="0.85">
    <circle cx="295" cy="455" r="5"/>
    <circle cx="490" cy="458" r="5"/>
    <circle cx="330" cy="525" r="5"/>
    <circle cx="455" cy="522" r="5"/>
    <circle cx="360" cy="448" r="4"/>
    <circle cx="425" cy="448" r="4"/>
  </g>
  <g fill="none" stroke="#e74c3c" stroke-width="1" opacity="0.7">
    <text x="288" y="451" font-size="8" fill="#c0392b" font-weight="bold">Ca²⁺</text>
    <text x="483" y="454" font-size="8" fill="#c0392b" font-weight="bold">Ca²⁺</text>
    <text x="448" y="518" font-size="8" fill="#c0392b" font-weight="bold">Ca²⁺</text>
  </g>

  <!-- === AUTOPHAGY (few, small autophagosomes) === -->
  <!-- One small autophagosome -->
  <circle cx="355" cy="560" r="12" fill="none" stroke="#8e44ad" stroke-width="1.5"
          stroke-dasharray="3,2"/>
  <circle cx="355" cy="560" r="6" fill="#d7bde2" opacity="0.6"/>
  <text x="315" y="590" font-size="9" fill="#8e44ad">Autophagosome</text>

  <!-- === LOW ROS (few red dots, far from nucleus) === -->
  <circle cx="165" cy="490" r="4" fill="#e74c3c" opacity="0.5"/>
  <circle cx="175" cy="510" r="3" fill="#e74c3c" opacity="0.5"/>
  <circle cx="607" cy="495" r="4" fill="#e74c3c" opacity="0.5"/>

  <!-- === TELOMERES (stable — small chromosome icon) === -->
  <g transform="translate(460, 530)">
    <rect x="-8" y="-14" width="6" height="28" rx="2" fill="#2980b9" stroke="#1a6fa8" stroke-width="1"/>
    <rect x="4" y="-14" width="6" height="28" rx="2" fill="#2980b9" stroke="#1a6fa8" stroke-width="1"/>
    <line x1="-2" y1="0" x2="4" y2="0" stroke="#1a5276" stroke-width="1.5"/>
    <!-- telomere caps -->
    <rect x="-8" y="-16" width="6" height="4" rx="1" fill="#1abc9c"/>
    <rect x="-8" y="12" width="6" height="4" rx="1" fill="#1abc9c"/>
    <rect x="4" y="-16" width="6" height="4" rx="1" fill="#1abc9c"/>
    <rect x="4" y="12" width="6" height="4" rx="1" fill="#1abc9c"/>
  </g>
  <text x="452" y="570" font-size="9" fill="#1a6fa8">Stable telomeres</text>

  <!-- === BALANCED PROTEOSTASIS (folded proteins) === -->
  <!-- Small folded protein icons (U-shaped coils) -->
  <g transform="translate(345, 625)" stroke="#16a085" stroke-width="1.5" fill="none">
    <path d="M0,0 Q6,-10 12,0 Q18,10 24,0"/>
    <path d="M4,5 Q10,-5 16,5 Q22,15 28,5"/>
  </g>
  <g transform="translate(390, 625)" stroke="#16a085" stroke-width="1.5" fill="none">
    <path d="M0,0 Q6,-10 12,0 Q18,10 24,0"/>
    <path d="M4,5 Q10,-5 16,5 Q22,15 28,5"/>
  </g>
  <text x="310" y="650" font-size="9" fill="#16a085">Balanced proteostasis</text>

  <!-- === YOUNG PANEL ANNOTATIONS === -->
  <!-- Callout 1: Mitochondrial function OK -->
  <text x="50" y="150" font-size="12" fill="#1a6fa8" font-weight="bold">✓ Normal mitochondrial function</text>
  <text x="50" y="166" font-size="11" fill="#2c3e50">Elongated, intact cristae</text>
  <text x="50" y="182" font-size="12" fill="#1a6fa8" font-weight="bold">✓ Low ROS</text>
  <text x="50" y="198" font-size="11" fill="#2c3e50">Minimal oxidative stress</text>
  <text x="50" y="216" font-size="12" fill="#1a6fa8" font-weight="bold">✓ Efficient Ca²⁺ cycling</text>
  <text x="50" y="232" font-size="11" fill="#2c3e50">Regular contraction–relaxation</text>
  <text x="50" y="250" font-size="12" fill="#1a6fa8" font-weight="bold">✓ Active autophagy</text>
  <text x="50" y="266" font-size="11" fill="#2c3e50">Protein quality control intact</text>
  <text x="50" y="284" font-size="12" fill="#1a6fa8" font-weight="bold">✓ Stable genome</text>
  <text x="50" y="300" font-size="11" fill="#2c3e50">Intact telomeres, no DNA damage</text>
  <text x="50" y="318" font-size="12" fill="#1a6fa8" font-weight="bold">✓ Normal cell size</text>
  <text x="50" y="334" font-size="11" fill="#2c3e50">No hypertrophy or stiffness</text>

  <!-- Arrows from feature list to cell -->
  <line x1="210" y1="186" x2="254" y2="450" stroke="#1a6fa8" stroke-width="1.2"
        stroke-dasharray="4,3" marker-end="url(#arrowBlue)" opacity="0.7"/>
  <line x1="195" y1="224" x2="295" y2="457" stroke="#e74c3c" stroke-width="1.2"
        stroke-dasharray="4,3" marker-end="url(#arrowOrange)" opacity="0.6"/>

  <!-- ============================================================ -->
  <!-- RIGHT PANEL — AGED CARDIOMYOCYTE -->
  <!-- ============================================================ -->
  <rect x="840" y="82" width="740" height="760" rx="12" ry="12"
        fill="url(#agedBg)" stroke="#c0392b" stroke-width="2" filter="url(#shadow)"/>

  <!-- Panel title -->
  <rect x="840" y="82" width="740" height="42" rx="12" ry="12" fill="#922b21"/>
  <rect x="840" y="106" width="740" height="18" fill="#922b21"/>
  <text x="1210" y="109" text-anchor="middle" font-size="18" font-weight="bold"
        fill="white">Aged Cardiomyocyte</text>

  <!-- === AGED CELL BODY (enlarged/hypertrophied) === -->
  <ellipse cx="1210" cy="490" rx="310" ry="215" fill="url(#cellAged)"
           stroke="#c0392b" stroke-width="2.5" opacity="0.85"/>

  <!-- === SARCOMERE DISARRAY (broken/irregular striations) === -->
  <g id="sarcomeres-aged" stroke="#4a2c0a" stroke-width="1.8" opacity="0.65">
    <!-- Irregular, broken, tilted lines -->
    <line x1="980" y1="425" x2="985" y2="562"/>
    <line x1="1014" y1="410" x2="1022" y2="572"/>
    <line x1="1050" y1="407" x2="1043" y2="568"/>   <!-- slightly angled -->
    <line x1="1085" y1="402" x2="1092" y2="578"/>
    <!-- break in sarcomere -->
    <line x1="1118" y1="402" x2="1120" y2="455"/>
    <line x1="1122" y1="470" x2="1125" y2="578"/>   <!-- gap = break -->
    <line x1="1158" y1="401" x2="1162" y2="578"/>
    <line x1="1192" y1="400" x2="1188" y2="578"/>   <!-- angled -->
    <line x1="1228" y1="402" x2="1235" y2="578"/>
    <line x1="1260" y1="404" x2="1254" y2="576"/>
    <!-- another break -->
    <line x1="1292" y1="406" x2="1295" y2="448"/>
    <line x1="1296" y1="466" x2="1298" y2="573"/>
    <line x1="1330" y1="412" x2="1336" y2="565"/>
    <line x1="1362" y1="422" x2="1370" y2="556"/>
    <line x1="1394" y1="437" x2="1400" y2="543"/>
  </g>
  <!-- Disorganised thick filaments -->
  <g stroke="#7a4010" stroke-width="2" opacity="0.5">
    <line x1="988"  y1="478" x2="1010" y2="482"/>
    <line x1="1024" y1="476" x2="1046" y2="480"/>
    <line x1="1058" y1="479" x2="1079" y2="476"/>
    <line x1="1095" y1="482" x2="1112" y2="479"/>
    <line x1="1130" y1="475" x2="1153" y2="480"/>
    <!-- misaligned -->
    <line x1="1165" y1="483" x2="1187" y2="477"/>
    <line x1="1196" y1="479" x2="1222" y2="483"/>
    <line x1="1235" y1="476" x2="1255" y2="482"/>
    <line x1="1265" y1="480" x2="1288" y2="475"/>
    <line x1="1304" y1="483" x2="1324" y2="478"/>
    <line x1="1338" y1="476" x2="1360" y2="482"/>
    <line x1="1372" y1="479" x2="1393" y2="476"/>
  </g>
  <!-- Break annotation -->
  <text x="1108" y="462" font-size="10" fill="#922b21" font-weight="bold">break</text>
  <line x1="1120" y1="455" x2="1120" y2="470" stroke="#922b21" stroke-width="2"
        stroke-dasharray="3,2"/>

  <!-- === NUCLEUS (aged, with DNA damage markers) === -->
  <ellipse cx="1210" cy="490" rx="62" ry="46" fill="url(#nucleusAged)"
           stroke="#7b241c" stroke-width="2"/>
  <!-- Chromatin condensation -->
  <circle cx="1192" cy="480" r="7" fill="#5b0f0a" opacity="0.7"/>
  <circle cx="1215" cy="498" r="6" fill="#5b0f0a" opacity="0.7"/>
  <circle cx="1230" cy="482" r="5" fill="#5b0f0a" opacity="0.6"/>

  <!-- DNA damage markers — γH2AX style starbursts -->
  <g fill="#f1c40f" opacity="0.9">
    <!-- starburst 1 -->
    <polygon points="1195,472 1197,466 1202,470 1200,464 1206,465 1203,470 1208,469 1204,474 1209,476 1204,477 1206,482 1201,479 1201,485 1198,480 1193,482 1196,477 1191,476" transform="scale(0.8) translate(300,120)"/>
    <!-- starburst 2 -->
    <polygon points="1225,478 1227,472 1232,476 1230,470 1236,471 1233,476 1238,475 1234,480 1239,482 1234,483 1236,488 1231,485 1231,491 1228,486 1223,488 1226,483 1221,482" transform="scale(0.75) translate(420,150)"/>
  </g>
  <!-- Simpler starburst approach -->
  <g stroke="#f39c12" stroke-width="1.5" fill="none">
    <line x1="1195" y1="477" x2="1200" y2="477"/>
    <line x1="1197" y1="474" x2="1198" y2="480"/>
    <line x1="1193" y1="474" x2="1201" y2="480"/>
    <line x1="1193" y1="480" x2="1201" y2="474"/>
  </g>
  <circle cx="1197" cy="477" r="4" fill="#f1c40f" opacity="0.85"/>
  <g stroke="#f39c12" stroke-width="1.5" fill="none">
    <line x1="1228" y1="483" x2="1233" y2="483"/>
    <line x1="1230" y1="480" x2="1231" y2="486"/>
    <line x1="1226" y1="480" x2="1234" y2="486"/>
    <line x1="1226" y1="486" x2="1234" y2="480"/>
  </g>
  <circle cx="1230" cy="483" r="4" fill="#f1c40f" opacity="0.85"/>

  <!-- γH2AX label near nucleus -->
  <text x="1252" y="464" font-size="10" fill="#c0392b" font-weight="bold">γH2AX</text>
  <line x1="1252" y1="466" x2="1238" y2="476" stroke="#c0392b" stroke-width="1"
        marker-end="url(#arrowOrange)"/>

  <!-- === ENLARGED/FRAGMENTED MITOCHONDRIA === -->
  <!-- Large, round, fragmented mitochondria -->
  <!-- Mito 1 — fragmented -->
  <ellipse cx="1065" cy="440" rx="28" ry="22" fill="url(#mitoDamaged)"
           stroke="#922b21" stroke-width="1.5"/>
  <!-- damaged cristae - wavy/broken -->
  <path d="M1048,436 Q1055,430 1062,438 Q1068,446 1075,438" fill="none"
        stroke="#7b241c" stroke-width="1.2"/>
  <path d="M1048,443 Q1054,449 1060,443" fill="none"
        stroke="#7b241c" stroke-width="1.2"/>

  <!-- Mito 2 — round/swollen -->
  <ellipse cx="1060" cy="545" rx="30" ry="24" fill="url(#mitoDamaged)"
           stroke="#922b21" stroke-width="1.5"/>
  <path d="M1042,542 Q1049,535 1056,543 Q1062,551 1070,542" fill="none"
        stroke="#7b241c" stroke-width="1.2"/>

  <!-- Mito 3 — fragmented fragment -->
  <ellipse cx="1108" cy="430" rx="18" ry="14" fill="url(#mitoDamaged)"
           stroke="#922b21" stroke-width="1.5" opacity="0.8"/>

  <!-- Mito 4 -->
  <ellipse cx="1355" cy="438" rx="27" ry="21" fill="url(#mitoDamaged)"
           stroke="#922b21" stroke-width="1.5"/>
  <path d="M1339,434 Q1346,428 1353,436 Q1359,444 1367,436" fill="none"
        stroke="#7b241c" stroke-width="1.2"/>

  <!-- Mito 5 -->
  <ellipse cx="1360" cy="545" rx="28" ry="22" fill="url(#mitoDamaged)"
           stroke="#922b21" stroke-width="1.5"/>

  <!-- Mito label -->
  <text x="1020" y="415" font-size="10" fill="#c0392b" font-weight="bold">Fragmented</text>
  <text x="1020" y="427" font-size="10" fill="#c0392b" font-weight="bold">mitochondria</text>

  <!-- === HIGH ROS (many red dots) === -->
  <g fill="#e74c3c" opacity="0.8">
    <circle cx="912" cy="490" r="5"/>
    <circle cx="925" cy="505" r="4"/>
    <circle cx="905" cy="518" r="5"/>
    <circle cx="918" cy="475" r="3"/>
    <circle cx="935" cy="520" r="4"/>
    <circle cx="950" cy="500" r="5"/>
    <circle cx="940" cy="485" r="3"/>
    <circle cx="960" cy="520" r="4"/>
    <circle cx="970" cy="505" r="5"/>
    <circle cx="1490" cy="490" r="5"/>
    <circle cx="1475" cy="505" r="4"/>
    <circle cx="1490" cy="520" r="5"/>
    <circle cx="1478" cy="475" r="3"/>
    <circle cx="1462" cy="520" r="4"/>
    <circle cx="1455" cy="500" r="5"/>
    <circle cx="1468" cy="485" r="3"/>
    <circle cx="1145" cy="455" r="4"/>
    <circle cx="1280" cy="455" r="4"/>
    <circle cx="1145" cy="530" r="4"/>
    <circle cx="1280" cy="530" r="4"/>
  </g>
  <text x="895" y="540" font-size="9" fill="#c0392b" font-weight="bold">↑ ROS</text>

  <!-- === LIPOFUSCIN GRANULES (brown dots) === -->
  <g fill="#8B4513" opacity="0.8">
    <circle cx="1155" cy="620" r="8"/>
    <circle cx="1175" cy="615" r="6"/>
    <circle cx="1165" cy="628" r="7"/>
    <circle cx="1190" cy="622" r="5"/>
    <circle cx="1205" cy="618" r="6"/>
    <circle cx="1220" cy="624" r="5"/>
    <circle cx="1240" cy="615" r="7"/>
    <circle cx="1255" cy="622" r="6"/>
    <circle cx="1270" cy="617" r="5"/>
  </g>
  <text x="1155" y="642" font-size="10" fill="#6B3410" font-style="italic">Lipofuscin granules</text>

  <!-- === IMPAIRED AUTOPHAGY (large autophagic vesicles) === -->
  <!-- Multiple large autophagosomes -->
  <circle cx="1130" cy="560" r="18" fill="none" stroke="#8e44ad" stroke-width="2"
          stroke-dasharray="4,2"/>
  <circle cx="1130" cy="560" r="10" fill="#d7bde2" opacity="0.7"/>
  <circle cx="1163" cy="555" r="15" fill="none" stroke="#8e44ad" stroke-width="2"
          stroke-dasharray="4,2"/>
  <circle cx="1163" cy="555" r="8" fill="#d7bde2" opacity="0.7"/>
  <circle cx="1115" cy="575" r="12" fill="none" stroke="#6c3483" stroke-width="2"
          stroke-dasharray="3,2"/>
  <circle cx="1115" cy="575" r="6" fill="#c39bd3" opacity="0.7"/>
  <text x="1090" y="605" font-size="10" fill="#8e44ad" font-weight="bold">Impaired autophagy</text>

  <!-- === ALTERED Ca²⁺ HANDLING (erratic/leaking) === -->
  <g fill="#e74c3c" opacity="0.85">
    <!-- Scattered Ca2+ all over -->
    <circle cx="1095" cy="465" r="5"/>
    <circle cx="1100" cy="510" r="5"/>
    <circle cx="1310" cy="468" r="5"/>
    <circle cx="1315" cy="513" r="5"/>
    <circle cx="1155" cy="440" r="4"/>
    <circle cx="1270" cy="440" r="4"/>
  </g>
  <text x="1084" y="458" font-size="8" fill="#c0392b" font-weight="bold">Ca²⁺</text>
  <text x="1089" y="505" font-size="8" fill="#c0392b" font-weight="bold">Ca²⁺</text>
  <text x="1299" y="462" font-size="8" fill="#c0392b" font-weight="bold">Ca²⁺</text>
  <text x="1304" y="507" font-size="8" fill="#c0392b" font-weight="bold">Ca²⁺</text>
  <!-- Leaking arrow from SR -->
  <path d="M1095,467 Q1088,480 1082,495" fill="none" stroke="#c0392b"
        stroke-width="1.2" stroke-dasharray="3,2" marker-end="url(#arrowOrange)"/>

  <!-- === SENESCENCE SIGNALING label === -->
  <rect x="1265" y="575" width="190" height="40" rx="6" fill="#c0392b" opacity="0.15"
        stroke="#c0392b" stroke-width="1.5"/>
  <text x="1360" y="592" text-anchor="middle" font-size="12" fill="#922b21" font-weight="bold">p16INK4a / p21</text>
  <text x="1360" y="607" text-anchor="middle" font-size="10" fill="#922b21">Senescence signalling</text>
  <line x1="1270" y1="595" x2="1252" y2="530" stroke="#922b21" stroke-width="1.5"
        stroke-dasharray="4,3" marker-end="url(#arrowOrange)"/>

  <!-- === FIBROSIS / PARACRINE SIGNALLING to fibroblast === -->
  <!-- Arrow from cell to fibroblast -->
  <line x1="1490" y1="540" x2="1530" y2="565" stroke="#7f8c8d" stroke-width="2"
        stroke-dasharray="5,3" marker-end="url(#arrowGray)"/>
  <!-- Small fibroblast icon -->
  <ellipse cx="1548" cy="572" rx="25" ry="14" fill="#bdc3c7" stroke="#7f8c8d" stroke-width="1.5"/>
  <line x1="1548" y1="558" x2="1548" y2="572" stroke="#7f8c8d" stroke-width="1"/>
  <line x1="1535" y1="562" x2="1548" y2="572" stroke="#7f8c8d" stroke-width="1"/>
  <line x1="1561" y1="562" x2="1548" y2="572" stroke="#7f8c8d" stroke-width="1"/>
  <text x="1520" y="598" font-size="9" fill="#555">Fibroblast</text>
  <text x="1505" y="610" font-size="9" fill="#555">(paracrine)</text>

  <!-- === HYPERTROPHY annotation === -->
  <text x="1148" y="718" font-size="11" fill="#922b21" font-style="italic">↑ Cell size (hypertrophy)</text>
  <text x="1148" y="732" font-size="11" fill="#922b21" font-style="italic">↑ Stiffness / fibrosis</text>

  <!-- === RIGHT PANEL CALLOUT LABELS === -->
  <!-- These callout labels appear on the right side with arrows to cell features -->
  <text x="1558" y="150" font-size="12" fill="#c0392b" font-weight="bold" text-anchor="start">1. Mitochondrial dysfunction</text>
  <line x1="1555" y1="148" x2="1385" y2="440" stroke="#c0392b" stroke-width="1.2"
        stroke-dasharray="4,3" marker-end="url(#arrowOrange)" opacity="0.8"/>

  <text x="1558" y="178" font-size="12" fill="#c0392b" font-weight="bold" text-anchor="start">2. ↑ ROS / oxidative stress</text>
  <line x1="1555" y1="176" x2="1475" y2="500" stroke="#c0392b" stroke-width="1.2"
        stroke-dasharray="4,3" marker-end="url(#arrowOrange)" opacity="0.8"/>

  <text x="1558" y="206" font-size="12" fill="#c0392b" font-weight="bold" text-anchor="start">3. Impaired proteostasis</text>
  <line x1="1555" y1="204" x2="1400" y2="490" stroke="#c0392b" stroke-width="1.2"
        stroke-dasharray="4,3" marker-end="url(#arrowOrange)" opacity="0.8"/>

  <text x="1558" y="234" font-size="12" fill="#c0392b" font-weight="bold" text-anchor="start">4. Reduced autophagy</text>
  <line x1="1555" y1="232" x2="1165" y2="557" stroke="#c0392b" stroke-width="1.2"
        stroke-dasharray="4,3" marker-end="url(#arrowOrange)" opacity="0.8"/>

  <text x="1558" y="262" font-size="12" fill="#c0392b" font-weight="bold" text-anchor="start">5. Ca²⁺ dysregulation</text>
  <line x1="1555" y1="260" x2="1315" y2="468" stroke="#c0392b" stroke-width="1.2"
        stroke-dasharray="4,3" marker-end="url(#arrowOrange)" opacity="0.8"/>

  <text x="1558" y="290" font-size="12" fill="#c0392b" font-weight="bold" text-anchor="start">6. DNA damage /</text>
  <text x="1558" y="306" font-size="12" fill="#c0392b" font-weight="bold" text-anchor="start">   telomere attrition</text>
  <line x1="1555" y1="288" x2="1230" y2="483" stroke="#c0392b" stroke-width="1.2"
        stroke-dasharray="4,3" marker-end="url(#arrowOrange)" opacity="0.8"/>

  <text x="1558" y="334" font-size="12" fill="#c0392b" font-weight="bold" text-anchor="start">7. Senescence signalling</text>
  <line x1="1555" y1="332" x2="1455" y2="595" stroke="#c0392b" stroke-width="1.2"
        stroke-dasharray="4,3" marker-end="url(#arrowOrange)" opacity="0.8"/>

  <text x="1558" y="362" font-size="12" fill="#c0392b" font-weight="bold" text-anchor="start">8. Hypertrophy / stiffness</text>
  <line x1="1555" y1="360" x2="1430" y2="650" stroke="#c0392b" stroke-width="1.2"
        stroke-dasharray="4,3" marker-end="url(#arrowOrange)" opacity="0.8"/>

  <!-- ============================================================ -->
  <!-- CENTRAL DIVIDER / AGEING ARROW -->
  <!-- ============================================================ -->
  <rect x="776" y="380" width="48" height="220" rx="6" fill="#ecf0f1" stroke="#bdc3c7" stroke-width="1.5"/>
  <!-- Large right arrow (ageing direction) -->
  <text x="800" y="465" text-anchor="middle" font-size="28" fill="#2c3e50" font-weight="bold">→</text>
  <text x="800" y="490" text-anchor="middle" font-size="11" fill="#7f8c8d" font-weight="bold">Ageing</text>
  <text x="800" y="506" text-anchor="middle" font-size="10" fill="#95a5a6">Time</text>
  <!-- Clock icon suggestion -->
  <circle cx="800" cy="530" r="16" fill="none" stroke="#7f8c8d" stroke-width="1.5"/>
  <line x1="800" y1="520" x2="800" y2="530" stroke="#2c3e50" stroke-width="1.8"/>
  <line x1="800" y1="530" x2="808" y2="535" stroke="#2c3e50" stroke-width="1.8"/>
  <circle cx="800" cy="530" r="2" fill="#2c3e50"/>

  <!-- ============================================================ -->
  <!-- LEGEND (bottom centre) -->
  <!-- ============================================================ -->
  <rect x="280" y="862" width="1040" height="110" rx="8" fill="#f8f9fa" stroke="#bdc3c7" stroke-width="1.5"/>
  <text x="800" y="882" text-anchor="middle" font-size="13" font-weight="bold" fill="#2c3e50">Legend</text>

  <!-- ROS -->
  <circle cx="320" cy="900" r="7" fill="#e74c3c" opacity="0.8"/>
  <text x="334" y="904" font-size="11" fill="#2c3e50">ROS (reactive oxygen species)</text>

  <!-- Ca2+ -->
  <circle cx="320" cy="924" r="7" fill="#e74c3c"/>
  <text x="334" y="928" font-size="11" fill="#2c3e50">Ca²⁺ ion</text>
  <text x="320" y="928" font-size="8" fill="white" text-anchor="middle" font-weight="bold">Ca</text>

  <!-- Lipofuscin -->
  <circle cx="560" cy="900" r="7" fill="#8B4513" opacity="0.8"/>
  <text x="574" y="904" font-size="11" fill="#2c3e50">Lipofuscin granule</text>

  <!-- Autophagosome -->
  <circle cx="560" cy="924" r="7" fill="none" stroke="#8e44ad" stroke-width="2"
          stroke-dasharray="3,2"/>
  <circle cx="560" cy="924" r="4" fill="#d7bde2"/>
  <text x="574" y="928" font-size="11" fill="#2c3e50">Autophagosome</text>

  <!-- Healthy mito -->
  <ellipse cx="808" cy="900" rx="14" ry="7" fill="url(#mitoHealthy)" stroke="#1e8449" stroke-width="1"/>
  <text x="828" y="904" font-size="11" fill="#2c3e50">Healthy mitochondrion</text>

  <!-- Damaged mito -->
  <ellipse cx="808" cy="924" rx="14" ry="7" fill="url(#mitoDamaged)" stroke="#922b21" stroke-width="1"/>
  <text x="828" y="928" font-size="11" fill="#2c3e50">Damaged mitochondrion</text>

  <!-- DNA damage marker -->
  <circle cx="1050" cy="900" r="6" fill="#f1c40f" opacity="0.85"/>
  <text x="1062" y="904" font-size="11" fill="#2c3e50">DNA damage (γH2AX)</text>

  <!-- Senescence -->
  <rect x="1044" y="916" width="12" height="12" rx="2" fill="#c0392b" opacity="0.2"
        stroke="#c0392b" stroke-width="1"/>
  <text x="1062" y="926" font-size="11" fill="#2c3e50">Senescence marker (p16/p21)</text>

  <!-- Sarcomere -->
  <line x1="310" y1="952" x2="360" y2="952" stroke="#1a3a5c" stroke-width="2"/>
  <line x1="310" y1="945" x2="310" y2="959" stroke="#1a3a5c" stroke-width="2"/>
  <line x1="360" y1="945" x2="360" y2="959" stroke="#1a3a5c" stroke-width="2"/>
  <text x="370" y="956" font-size="11" fill="#2c3e50">Sarcomere (Z-lines / myosin)</text>

  <!-- ============================================================ -->
  <!-- BOTTOM CREDIT / SOURCE LINE -->
  <!-- ============================================================ -->
  <text x="800" y="990" text-anchor="middle" font-size="10" fill="#95a5a6"
        font-style="italic">
    Cardiomyocyte Ageing Infographic — AI Models for Early Cardiovascular Diseases Detection
  </text>

</svg>
