<?xml version="1.0" encoding="UTF-8"?>
<svg xmlns="http://www.w3.org/2000/svg" viewBox="0 0 1800 1400" width="1800" height="1400" font-family="Helvetica, Arial, sans-serif">
<defs>
  <marker id="arrowRight" viewBox="0 0 8 8" refX="7" refY="4" markerWidth="5" markerHeight="5" orient="auto">
    <path d="M0,0 L8,4 L0,8 Z" fill="#999"/>
  </marker>
</defs>
<rect width="1800" height="1400" fill="#FFFFFF"/>
<rect x="390.0" y="80" width="350.0" height="1166.0" fill="#EEF6FB" opacity="0.45"/>
<rect x="740.0" y="80" width="350.0" height="1166.0" fill="#F9F0F5" opacity="0.45"/>
<rect x="1090.0" y="80" width="350.0" height="1166.0" fill="#FFF5E6" opacity="0.45"/>
<rect x="1440.0" y="80" width="350.0" height="1166.0" fill="#FFF0EE" opacity="0.45"/>
<line x1="477.5" y1="80" x2="477.5" y2="1246" stroke="#ccc" stroke-width="0.5"/>
<line x1="565.0" y1="80" x2="565.0" y2="1246" stroke="#ccc" stroke-width="0.5"/>
<line x1="652.5" y1="80" x2="652.5" y2="1246" stroke="#ccc" stroke-width="0.5"/>
<line x1="740.0" y1="80" x2="740.0" y2="1246" stroke="#999" stroke-width="1.2"/>
<line x1="827.5" y1="80" x2="827.5" y2="1246" stroke="#ccc" stroke-width="0.5"/>
<line x1="915.0" y1="80" x2="915.0" y2="1246" stroke="#ccc" stroke-width="0.5"/>
<line x1="1002.5" y1="80" x2="1002.5" y2="1246" stroke="#ccc" stroke-width="0.5"/>
<line x1="1090.0" y1="80" x2="1090.0" y2="1246" stroke="#999" stroke-width="1.2"/>
<line x1="1177.5" y1="80" x2="1177.5" y2="1246" stroke="#ccc" stroke-width="0.5"/>
<line x1="1265.0" y1="80" x2="1265.0" y2="1246" stroke="#ccc" stroke-width="0.5"/>
<line x1="1352.5" y1="80" x2="1352.5" y2="1246" stroke="#ccc" stroke-width="0.5"/>
<line x1="1440.0" y1="80" x2="1440.0" y2="1246" stroke="#999" stroke-width="1.2"/>
<line x1="1527.5" y1="80" x2="1527.5" y2="1246" stroke="#ccc" stroke-width="0.5"/>
<line x1="1615.0" y1="80" x2="1615.0" y2="1246" stroke="#ccc" stroke-width="0.5"/>
<line x1="1702.5" y1="80" x2="1702.5" y2="1246" stroke="#ccc" stroke-width="0.5"/>
<line x1="1790.0" y1="80" x2="1790.0" y2="1246" stroke="#999" stroke-width="1.2"/>
<line x1="390.0" y1="80" x2="390.0" y2="1246" stroke="#666" stroke-width="1"/>
<line x1="1790.0" y1="80" x2="1790.0" y2="1246" stroke="#666" stroke-width="1"/>
<line x1="390.0" y1="180.0" x2="1790.0" y2="180.0" stroke="#e0e0e0" stroke-width="0.4"/>
<line x1="390.0" y1="202.0" x2="1790.0" y2="202.0" stroke="#e0e0e0" stroke-width="0.4"/>
<line x1="390.0" y1="224.0" x2="1790.0" y2="224.0" stroke="#e0e0e0" stroke-width="0.4"/>
<line x1="390.0" y1="246.0" x2="1790.0" y2="246.0" stroke="#e0e0e0" stroke-width="0.4"/>
<line x1="390.0" y1="268.0" x2="1790.0" y2="268.0" stroke="#e0e0e0" stroke-width="0.4"/>
<line x1="390.0" y1="290.0" x2="1790.0" y2="290.0" stroke="#e0e0e0" stroke-width="0.4"/>
<line x1="390.0" y1="312.0" x2="1790.0" y2="312.0" stroke="#e0e0e0" stroke-width="0.4"/>
<line x1="390.0" y1="334.0" x2="1790.0" y2="334.0" stroke="#e0e0e0" stroke-width="0.4"/>
<line x1="390.0" y1="356.0" x2="1790.0" y2="356.0" stroke="#e0e0e0" stroke-width="0.4"/>
<line x1="390.0" y1="378.0" x2="1790.0" y2="378.0" stroke="#e0e0e0" stroke-width="0.4"/>
<line x1="390.0" y1="432.0" x2="1790.0" y2="432.0" stroke="#e0e0e0" stroke-width="0.4"/>
<line x1="390.0" y1="454.0" x2="1790.0" y2="454.0" stroke="#e0e0e0" stroke-width="0.4"/>
<line x1="390.0" y1="476.0" x2="1790.0" y2="476.0" stroke="#e0e0e0" stroke-width="0.4"/>
<line x1="390.0" y1="498.0" x2="1790.0" y2="498.0" stroke="#e0e0e0" stroke-width="0.4"/>
<line x1="390.0" y1="520.0" x2="1790.0" y2="520.0" stroke="#e0e0e0" stroke-width="0.4"/>
<line x1="390.0" y1="542.0" x2="1790.0" y2="542.0" stroke="#e0e0e0" stroke-width="0.4"/>
<line x1="390.0" y1="564.0" x2="1790.0" y2="564.0" stroke="#e0e0e0" stroke-width="0.4"/>
<line x1="390.0" y1="618.0" x2="1790.0" y2="618.0" stroke="#e0e0e0" stroke-width="0.4"/>
<line x1="390.0" y1="640.0" x2="1790.0" y2="640.0" stroke="#e0e0e0" stroke-width="0.4"/>
<line x1="390.0" y1="662.0" x2="1790.0" y2="662.0" stroke="#e0e0e0" stroke-width="0.4"/>
<line x1="390.0" y1="684.0" x2="1790.0" y2="684.0" stroke="#e0e0e0" stroke-width="0.4"/>
<line x1="390.0" y1="706.0" x2="1790.0" y2="706.0" stroke="#e0e0e0" stroke-width="0.4"/>
<line x1="390.0" y1="728.0" x2="1790.0" y2="728.0" stroke="#e0e0e0" stroke-width="0.4"/>
<line x1="390.0" y1="750.0" x2="1790.0" y2="750.0" stroke="#e0e0e0" stroke-width="0.4"/>
<line x1="390.0" y1="804.0" x2="1790.0" y2="804.0" stroke="#e0e0e0" stroke-width="0.4"/>
<line x1="390.0" y1="826.0" x2="1790.0" y2="826.0" stroke="#e0e0e0" stroke-width="0.4"/>
<line x1="390.0" y1="848.0" x2="1790.0" y2="848.0" stroke="#e0e0e0" stroke-width="0.4"/>
<line x1="390.0" y1="870.0" x2="1790.0" y2="870.0" stroke="#e0e0e0" stroke-width="0.4"/>
<line x1="390.0" y1="892.0" x2="1790.0" y2="892.0" stroke="#e0e0e0" stroke-width="0.4"/>
<line x1="390.0" y1="914.0" x2="1790.0" y2="914.0" stroke="#e0e0e0" stroke-width="0.4"/>
<line x1="390.0" y1="936.0" x2="1790.0" y2="936.0" stroke="#e0e0e0" stroke-width="0.4"/>
<line x1="390.0" y1="990.0" x2="1790.0" y2="990.0" stroke="#e0e0e0" stroke-width="0.4"/>
<line x1="390.0" y1="1012.0" x2="1790.0" y2="1012.0" stroke="#e0e0e0" stroke-width="0.4"/>
<line x1="390.0" y1="1034.0" x2="1790.0" y2="1034.0" stroke="#e0e0e0" stroke-width="0.4"/>
<line x1="390.0" y1="1056.0" x2="1790.0" y2="1056.0" stroke="#e0e0e0" stroke-width="0.4"/>
<line x1="390.0" y1="1078.0" x2="1790.0" y2="1078.0" stroke="#e0e0e0" stroke-width="0.4"/>
<line x1="390.0" y1="1100.0" x2="1790.0" y2="1100.0" stroke="#e0e0e0" stroke-width="0.4"/>
<line x1="390.0" y1="1122.0" x2="1790.0" y2="1122.0" stroke="#e0e0e0" stroke-width="0.4"/>
<line x1="390.0" y1="1176.0" x2="1790.0" y2="1176.0" stroke="#e0e0e0" stroke-width="0.4"/>
<line x1="390.0" y1="1198.0" x2="1790.0" y2="1198.0" stroke="#e0e0e0" stroke-width="0.4"/>
<line x1="390.0" y1="1220.0" x2="1790.0" y2="1220.0" stroke="#e0e0e0" stroke-width="0.4"/>
<line x1="390.0" y1="1242.0" x2="1790.0" y2="1242.0" stroke="#e0e0e0" stroke-width="0.4"/>
<text x="900" y="42" text-anchor="middle" font-size="20" font-weight="bold" fill="#1a1a2e" letter-spacing="0.3">AI-Enabled Multi-Modal Cardiac MRI Analysis for Early Detection and Risk Prediction of Heart Failure</text>
<text x="900" y="65" text-anchor="middle" font-size="13" fill="#444">PhD Research Plan — 4-Year Gantt Chart</text>
<line x1="300" y1="71" x2="1500" y2="71" stroke="#2E86AB" stroke-width="1.5"/>
<rect x="390.0" y="80" width="350.0" height="25" fill="#2E86AB" rx="0"/>
<text x="565.0" y="97.5" text-anchor="middle" font-size="13" font-weight="bold" fill="#fff">Year 1</text>
<rect x="740.0" y="80" width="350.0" height="25" fill="#A23B72" rx="0"/>
<text x="915.0" y="97.5" text-anchor="middle" font-size="13" font-weight="bold" fill="#fff">Year 2</text>
<rect x="1090.0" y="80" width="350.0" height="25" fill="#F18F01" rx="0"/>
<text x="1265.0" y="97.5" text-anchor="middle" font-size="13" font-weight="bold" fill="#fff">Year 3</text>
<rect x="1440.0" y="80" width="350.0" height="25" fill="#C73E1D" rx="0"/>
<text x="1615.0" y="97.5" text-anchor="middle" font-size="13" font-weight="bold" fill="#fff">Year 4</text>
<rect x="390.0" y="105" width="1400.0" height="23" fill="#f0f0f0"/>
<text x="433.8" y="121.5" text-anchor="middle" font-size="10" fill="#444">Q1</text>
<text x="521.2" y="121.5" text-anchor="middle" font-size="10" fill="#444">Q2</text>
<text x="608.8" y="121.5" text-anchor="middle" font-size="10" fill="#444">Q3</text>
<text x="696.2" y="121.5" text-anchor="middle" font-size="10" fill="#444">Q4</text>
<text x="783.8" y="121.5" text-anchor="middle" font-size="10" fill="#444">Q1</text>
<text x="871.2" y="121.5" text-anchor="middle" font-size="10" fill="#444">Q2</text>
<text x="958.8" y="121.5" text-anchor="middle" font-size="10" fill="#444">Q3</text>
<text x="1046.2" y="121.5" text-anchor="middle" font-size="10" fill="#444">Q4</text>
<text x="1133.8" y="121.5" text-anchor="middle" font-size="10" fill="#444">Q1</text>
<text x="1221.2" y="121.5" text-anchor="middle" font-size="10" fill="#444">Q2</text>
<text x="1308.8" y="121.5" text-anchor="middle" font-size="10" fill="#444">Q3</text>
<text x="1396.2" y="121.5" text-anchor="middle" font-size="10" fill="#444">Q4</text>
<text x="1483.8" y="121.5" text-anchor="middle" font-size="10" fill="#444">Q1</text>
<text x="1571.2" y="121.5" text-anchor="middle" font-size="10" fill="#444">Q2</text>
<text x="1658.8" y="121.5" text-anchor="middle" font-size="10" fill="#444">Q3</text>
<text x="1746.2" y="121.5" text-anchor="middle" font-size="10" fill="#444">Q4</text>
<rect x="0" y="80" width="390" height="1166.0" fill="#f7f9fb"/>
<line x1="390" y1="80" x2="390" y2="1246" stroke="#bbb" stroke-width="1"/>
<rect x="0" y="80" width="390" height="48" fill="#e8edf2"/>
<text x="195.0" y="110.0" text-anchor="middle" font-size="12" font-weight="bold" fill="#333">Work Package / Task</text>
<rect x="0" y="130" width="1800" height="28" fill="#1B6CA8"/>
<text x="8" y="150" font-size="11" font-weight="bold" fill="#fff">Year 1 – Foundations and Data Infrastructure</text>
<rect x="0" y="158" width="390" height="22" fill="none"/>
<text x="384" y="174" text-anchor="end" font-size="10" fill="#333">Literature review &amp; gap analysis</text>
<rect x="392.0" y="159" width="83.5" height="18" rx="4" fill="#2E86AB" opacity="0.85"/>
<rect x="0" y="180" width="390" height="22" fill="none"/>
<text x="384" y="196" text-anchor="end" font-size="10" fill="#333">Review of AI methods (CNNs, ViT, multi-modal)</text>
<rect x="392.0" y="181" width="83.5" height="18" rx="4" fill="#2E86AB" opacity="0.85"/>
<rect x="0" y="202" width="390" height="22" fill="none"/>
<text x="384" y="218" text-anchor="end" font-size="10" fill="#333">Dataset acquisition (UK Biobank, clinical cohorts)</text>
<rect x="479.5" y="203" width="83.5" height="18" rx="4" fill="#2E86AB" opacity="0.85"/>
<rect x="0" y="224" width="390" height="22" fill="none"/>
<text x="384" y="240" text-anchor="end" font-size="10" fill="#333">Data governance &amp; ethical approval</text>
<rect x="479.5" y="225" width="83.5" height="18" rx="4" fill="#2E86AB" opacity="0.85"/>
<rect x="0" y="246" width="390" height="22" fill="none"/>
<text x="384" y="262" text-anchor="end" font-size="10" fill="#333">Cardiac MRI preprocessing pipeline</text>
<rect x="567.0" y="247" width="83.5" height="18" rx="4" fill="#2E86AB" opacity="0.85"/>
<rect x="0" y="268" width="390" height="22" fill="none"/>
<text x="384" y="284" text-anchor="end" font-size="10" fill="#333">Automated segmentation of cardiac structures</text>
<rect x="567.0" y="269" width="83.5" height="18" rx="4" fill="#2E86AB" opacity="0.85"/>
<rect x="0" y="290" width="390" height="22" fill="none"/>
<text x="384" y="306" text-anchor="end" font-size="10" fill="#333">Tissue mapping extraction (T1, T2, ECV)</text>
<rect x="567.0" y="291" width="83.5" height="18" rx="4" fill="#2E86AB" opacity="0.85"/>
<rect x="0" y="312" width="390" height="22" fill="none"/>
<text x="384" y="328" text-anchor="end" font-size="10" fill="#333">Feature engineering &amp; representation learning</text>
<rect x="654.5" y="313" width="83.5" height="18" rx="4" fill="#2E86AB" opacity="0.85"/>
<rect x="0" y="334" width="390" height="22" fill="none"/>
<text x="384" y="350" text-anchor="end" font-size="10" fill="#333">Baseline deep learning models</text>
<rect x="654.5" y="335" width="83.5" height="18" rx="4" fill="#2E86AB" opacity="0.85"/>
<rect x="0" y="356" width="390" height="22" fill="none"/>
<text x="384" y="372" text-anchor="end" font-size="10" fill="#333">Preliminary myocardial abnormality detection</text>
<rect x="654.5" y="357" width="83.5" height="18" rx="4" fill="#2E86AB" opacity="0.85"/>
<rect x="0" y="382" width="1800" height="28" fill="#7B1F5E"/>
<text x="8" y="402" font-size="11" font-weight="bold" fill="#fff">Year 2 – AI Model Development and Multi-Modal Integration</text>
<rect x="0" y="410" width="390" height="22" fill="none"/>
<text x="384" y="426" text-anchor="end" font-size="10" fill="#333">CNN architectures for cardiac MRI features</text>
<rect x="742.0" y="411" width="83.5" height="18" rx="4" fill="#A23B72" opacity="0.85"/>
<rect x="0" y="432" width="390" height="22" fill="none"/>
<text x="384" y="448" text-anchor="end" font-size="10" fill="#333">Transformer-based spatial imaging analysis</text>
<rect x="742.0" y="433" width="83.5" height="18" rx="4" fill="#A23B72" opacity="0.85"/>
<rect x="0" y="454" width="390" height="22" fill="none"/>
<text x="384" y="470" text-anchor="end" font-size="10" fill="#333">Multi-modal integration (tissue mapping, LGE, function)</text>
<rect x="829.5" y="455" width="83.5" height="18" rx="4" fill="#A23B72" opacity="0.85"/>
<rect x="0" y="476" width="390" height="22" fill="none"/>
<text x="384" y="492" text-anchor="end" font-size="10" fill="#333">DL model training on large MRI datasets</text>
<rect x="917.0" y="477" width="83.5" height="18" rx="4" fill="#A23B72" opacity="0.85"/>
<rect x="0" y="498" width="390" height="22" fill="none"/>
<text x="384" y="514" text-anchor="end" font-size="10" fill="#333">Hyperparameter optimisation &amp; calibration</text>
<rect x="917.0" y="499" width="83.5" height="18" rx="4" fill="#A23B72" opacity="0.85"/>
<rect x="0" y="520" width="390" height="22" fill="none"/>
<text x="384" y="536" text-anchor="end" font-size="10" fill="#333">Single vs. multi-modality model evaluation</text>
<rect x="1004.5" y="521" width="83.5" height="18" rx="4" fill="#A23B72" opacity="0.85"/>
<rect x="0" y="542" width="390" height="22" fill="none"/>
<text x="384" y="558" text-anchor="end" font-size="10" fill="#333">Early myocardial abnormality detection algorithms</text>
<rect x="1004.5" y="543" width="83.5" height="18" rx="4" fill="#A23B72" opacity="0.85"/>
<rect x="0" y="568" width="1800" height="28" fill="#B05F00"/>
<text x="8" y="588" font-size="11" font-weight="bold" fill="#fff">Year 3 – Model Validation and Explainable AI</text>
<rect x="0" y="596" width="390" height="22" fill="none"/>
<text x="384" y="612" text-anchor="end" font-size="10" fill="#333">Cross-validation &amp; regularisation optimisation</text>
<rect x="1092.0" y="597" width="83.5" height="18" rx="4" fill="#F18F01" opacity="0.85"/>
<rect x="0" y="618" width="390" height="22" fill="none"/>
<text x="384" y="634" text-anchor="end" font-size="10" fill="#333">Domain adaptation for generalisation</text>
<rect x="1092.0" y="619" width="83.5" height="18" rx="4" fill="#F18F01" opacity="0.85"/>
<rect x="0" y="640" width="390" height="22" fill="none"/>
<text x="384" y="656" text-anchor="end" font-size="10" fill="#333">External validation (independent MRI datasets)</text>
<rect x="1179.5" y="641" width="83.5" height="18" rx="4" fill="#F18F01" opacity="0.85"/>
<rect x="0" y="662" width="390" height="22" fill="none"/>
<text x="384" y="678" text-anchor="end" font-size="10" fill="#333">Clinical metrics evaluation (AUC, sensitivity, specif…</text>
<rect x="1179.5" y="663" width="83.5" height="18" rx="4" fill="#F18F01" opacity="0.85"/>
<rect x="0" y="684" width="390" height="22" fill="none"/>
<text x="384" y="700" text-anchor="end" font-size="10" fill="#333">Explainable AI (Grad-CAM, SHAP, biomarker discovery)</text>
<rect x="1267.0" y="685" width="83.5" height="18" rx="4" fill="#F18F01" opacity="0.85"/>
<rect x="0" y="706" width="390" height="22" fill="none"/>
<text x="384" y="722" text-anchor="end" font-size="10" fill="#333">Interpretable imaging biomarker identification</text>
<rect x="1354.5" y="707" width="83.5" height="18" rx="4" fill="#F18F01" opacity="0.85"/>
<rect x="0" y="728" width="390" height="22" fill="none"/>
<text x="384" y="744" text-anchor="end" font-size="10" fill="#333">Clinical decision support framework integration</text>
<rect x="1354.5" y="729" width="83.5" height="18" rx="4" fill="#F18F01" opacity="0.85"/>
<rect x="0" y="754" width="1800" height="28" fill="#8B2211"/>
<text x="8" y="774" font-size="11" font-weight="bold" fill="#fff">Year 4 – Clinical Translation and Thesis Completion</text>
<rect x="0" y="782" width="390" height="22" fill="none"/>
<text x="384" y="798" text-anchor="end" font-size="10" fill="#333">Clinical interpretation of AI biomarkers</text>
<rect x="1442.0" y="783" width="83.5" height="18" rx="4" fill="#C73E1D" opacity="0.85"/>
<rect x="0" y="804" width="390" height="22" fill="none"/>
<text x="384" y="820" text-anchor="end" font-size="10" fill="#333">Cardiologist collaboration &amp; validation</text>
<rect x="1442.0" y="805" width="83.5" height="18" rx="4" fill="#C73E1D" opacity="0.85"/>
<rect x="0" y="826" width="390" height="22" fill="none"/>
<text x="384" y="842" text-anchor="end" font-size="10" fill="#333">Prototype clinical decision support system</text>
<rect x="1529.5" y="827" width="83.5" height="18" rx="4" fill="#C73E1D" opacity="0.85"/>
<rect x="0" y="848" width="390" height="22" fill="none"/>
<text x="384" y="864" text-anchor="end" font-size="10" fill="#333">Scalable analysis pipeline integration</text>
<rect x="1529.5" y="849" width="83.5" height="18" rx="4" fill="#C73E1D" opacity="0.85"/>
<rect x="0" y="870" width="390" height="22" fill="none"/>
<text x="384" y="886" text-anchor="end" font-size="10" fill="#333">High-impact journal publications</text>
<rect x="1617.0" y="871" width="83.5" height="18" rx="4" fill="#C73E1D" opacity="0.85"/>
<rect x="0" y="892" width="390" height="22" fill="none"/>
<text x="384" y="908" text-anchor="end" font-size="10" fill="#333">Thesis writing &amp; submission</text>
<rect x="1617.0" y="893" width="171.0" height="18" rx="4" fill="#C73E1D" opacity="0.85"/>
<rect x="0" y="914" width="390" height="22" fill="none"/>
<text x="384" y="930" text-anchor="end" font-size="10" fill="#333">PhD viva preparation</text>
<rect x="1704.5" y="915" width="83.5" height="18" rx="4" fill="#C73E1D" opacity="0.85"/>
<rect x="0" y="940" width="1800" height="28" fill="#3B1F2B"/>
<text x="8" y="960" font-size="11" font-weight="bold" fill="#fff">Dissemination &amp; Publications</text>
<polygon points="696.2,969.0 705.2,978.0 696.2,987.0 687.2,978.0" fill="#3B1F2B" stroke="white" stroke-width="1"/>
<text x="384" y="984" text-anchor="end" font-size="10" fill="#333">Poster – BHF Research Symposium</text>
<polygon points="696.2,991.0 705.2,1000.0 696.2,1009.0 687.2,1000.0" fill="#3B1F2B" stroke="white" stroke-width="1"/>
<text x="384" y="1006" text-anchor="end" font-size="10" fill="#333">Presentation – BSCR Annual Meeting</text>
<polygon points="1046.2,1013.0 1055.2,1022.0 1046.2,1031.0 1037.2,1022.0" fill="#3B1F2B" stroke="white" stroke-width="1"/>
<text x="384" y="1028" text-anchor="end" font-size="10" fill="#333">Paper submission – MICCAI</text>
<polygon points="1046.2,1035.0 1055.2,1044.0 1046.2,1053.0 1037.2,1044.0" fill="#3B1F2B" stroke="white" stroke-width="1"/>
<text x="384" y="1050" text-anchor="end" font-size="10" fill="#333">Presentation – BHF Cardiovascular Conference</text>
<polygon points="1308.8,1057.0 1317.8,1066.0 1308.8,1075.0 1299.8,1066.0" fill="#3B1F2B" stroke="white" stroke-width="1"/>
<text x="384" y="1072" text-anchor="end" font-size="10" fill="#333">Paper – NeurIPS AI for Healthcare</text>
<polygon points="1396.2,1079.0 1405.2,1088.0 1396.2,1097.0 1387.2,1088.0" fill="#3B1F2B" stroke="white" stroke-width="1"/>
<text x="384" y="1094" text-anchor="end" font-size="10" fill="#333">Oral presentation – BSCR</text>
<polygon points="1658.8,1101.0 1667.8,1110.0 1658.8,1119.0 1649.8,1110.0" fill="#3B1F2B" stroke="white" stroke-width="1"/>
<text x="384" y="1116" text-anchor="end" font-size="10" fill="#333">Final presentations (BHF, MICCAI, NeurIPS)</text>
<rect x="0" y="1126" width="1800" height="28" fill="#9B1520"/>
<text x="8" y="1146" font-size="11" font-weight="bold" fill="#fff">Key Milestones</text>
<polygon points="740.0,1154.0 750.0,1164.0 740.0,1174.0 730.0,1164.0" fill="#E63946" stroke="white" stroke-width="1.5"/>
<text x="384" y="1170" text-anchor="end" font-size="10" font-weight="bold" fill="#E63946">◆ Cardiac MRI pipeline &amp; baseline models complete</text>
<text x="754.0" y="1168.0" text-anchor="start" font-size="9" font-weight="bold" fill="#E63946">M1</text>
<polygon points="1090.0,1176.0 1100.0,1186.0 1090.0,1196.0 1080.0,1186.0" fill="#E63946" stroke="white" stroke-width="1.5"/>
<text x="384" y="1192" text-anchor="end" font-size="10" font-weight="bold" fill="#E63946">◆ Multi-modal AI framework operational</text>
<text x="1104.0" y="1190.0" text-anchor="start" font-size="9" font-weight="bold" fill="#E63946">M2</text>
<polygon points="1440.0,1198.0 1450.0,1208.0 1440.0,1218.0 1430.0,1208.0" fill="#E63946" stroke="white" stroke-width="1.5"/>
<text x="384" y="1214" text-anchor="end" font-size="10" font-weight="bold" fill="#E63946">◆ Validated AI with interpretable biomarkers</text>
<text x="1454.0" y="1212.0" text-anchor="start" font-size="9" font-weight="bold" fill="#E63946">M3</text>
<polygon points="1790.0,1220.0 1800.0,1230.0 1790.0,1240.0 1780.0,1230.0" fill="#E63946" stroke="white" stroke-width="1.5"/>
<text x="384" y="1236" text-anchor="end" font-size="10" font-weight="bold" fill="#E63946">◆ PhD thesis submitted</text>
<text x="1776.0" y="1234.0" text-anchor="end" font-size="9" font-weight="bold" fill="#E63946">M4</text>
<line x1="0" y1="1246" x2="1800" y2="1246" stroke="#aaa" stroke-width="1"/>
<text x="50" y="1274" font-size="11" font-weight="bold" fill="#333">Legend:</text>
<rect x="50" y="1280" width="32" height="16" rx="3" fill="#2E86AB"/>
<text x="88" y="1292" font-size="10" fill="#333">Research Development (Y1)</text>
<rect x="420" y="1280" width="32" height="16" rx="3" fill="#A23B72"/>
<text x="458" y="1292" font-size="10" fill="#333">Model Experimentation (Y2)</text>
<rect x="790" y="1280" width="32" height="16" rx="3" fill="#F18F01"/>
<text x="828" y="1292" font-size="10" fill="#333">Validation &amp; Explainability (Y3)</text>
<rect x="50" y="1306" width="32" height="16" rx="3" fill="#C73E1D"/>
<text x="88" y="1318" font-size="10" fill="#333">Clinical Translation &amp; Thesis (Y4)</text>
<rect x="420" y="1306" width="32" height="16" rx="3" fill="#3B1F2B"/>
<text x="458" y="1318" font-size="10" fill="#333">Dissemination / Publications</text>
<polygon points="806.0,1306.0 814.0,1314.0 806.0,1322.0 798.0,1314.0" fill="#E63946" stroke="white" stroke-width="1"/>
<text x="828" y="1318" font-size="10" fill="#333">Milestone ◆</text>
<polygon points="66.0,1332.0 74.0,1340.0 66.0,1348.0 58.0,1340.0" fill="#3B1F2B" stroke="white" stroke-width="1"/>
<text x="88" y="1344" font-size="10" fill="#333">Dissemination event ◆</text>
<text x="900" y="1386" text-anchor="middle" font-size="9" fill="#aaa">AI-Enabled Multi-Modal Cardiac MRI Analysis · PhD Research Plan · University Research Proposal</text>
</svg>